<?xml version="1.0" encoding="utf-8"?>
<!-- Generator: Adobe Illustrator 24.1.1, SVG Export Plug-In . SVG Version: 6.00 Build 0)  -->
<svg version="1.1" id="Layer_1" xmlns="http://www.w3.org/2000/svg" xmlns:xlink="http://www.w3.org/1999/xlink" x="0px" y="0px"
	 viewBox="0 0 512 512" style="enable-background:new 0 0 512 512;" xml:space="preserve">
<style type="text/css">
	.st0{fill:#E0E0D1;}
	.st1{fill:#BAB9AE;}
	.st2{fill:#4F5D73;}
</style>
<g id="XMLID_1_">
	<path id="XMLID_3_" class="st0" d="M256,0c141,0,256,115,256,256S397,512,256,512S0,397,0,256S115,0,256,0"/>
	<path id="XMLID_6_" class="st1" d="M185.9,184.3c-22.1,0-41,18.9-41,42.5c0,22.8,18.1,42.5,41,42.5c7.1,0,13.4-2.4,21.3-5.5
		c-2.4,22.1-13.4,55.1-55.9,89c-5.5,4.7-7.1,12.6-2.4,18.9c2.4,3.9,6.3,5.5,10.2,5.5c2.4,0,5.5-1.6,7.9-3.2
		c52-41,64.6-83.5,66.2-111.1c3.2-36.2-7.9-55.1-18.1-64.6c-1.6-1.6-2.4-2.4-3.2-3.2c-2.4-2.4-4.7-3.9-6.3-4.7c-0.8,0-0.8,0-0.8,0
		c-3.2-1.6-4.7-2.4-4.7-2.4C195.3,185.9,190.6,184.3,185.9,184.3 M321.4,183.5c-22.1,0-41,18.9-41,42.5c0,22.8,18.1,42.5,41,42.5
		c7.1,0,14.2-2.4,19.7-5.5c-2.4,22.1-13.4,55.1-55.9,89c-5.5,4.7-7.1,12.6-2.4,18.9c2.4,3.9,6.3,5.5,10.2,5.5c2.4,0,5.5-1.6,7.9-3.2
		c52-41,64.6-83.5,66.2-111.1c2.4-36.2-8.7-54.4-16.5-64.6c-1.6-1.6-2.4-2.4-3.2-3.2c-2.4-2.4-4.7-3.9-6.3-4.7c-0.8,0-0.8,0-0.8,0
		c-3.2-1.6-4.7-2.4-4.7-2.4C330.8,185.1,326.1,183.5,321.4,183.5"/>
	<path id="XMLID_9_" class="st2" d="M367.9,245.8c-1.6,28.4-14.2,70.1-66.2,111.1c-2.4,1.6-5.5,3.2-7.9,3.2c-3.9,0-7.9-1.6-10.2-5.5
		c-4.7-6.3-3.2-14.2,2.4-18.9c42.5-33.9,53.6-66.2,55.9-89c-5.5,3.2-12.6,5.5-19.7,5.5c-22.1,0-41-18.9-41-42.5
		c0-22.8,18.1-42.5,41-42.5c4.7,0,9.5,1.6,14.2,3.2c0,0,1.6,0.8,4.7,2.4c0,0,0,0,0.8,0c1.6,0.8,3.9,2.4,6.3,4.7
		c0.8,0.8,1.6,1.6,3.2,3.2C359.2,191.4,370.2,209.5,367.9,245.8z M185.9,252.8c-22.1,0-41-18.9-41-42.5c0-22.8,18.1-42.5,41-42.5
		c4.7,0,9.5,1.6,14.2,3.2c0,0,1.6,0.8,4.7,2.4c0,0,0,0,0.8,0c1.6,0.8,3.9,2.4,6.3,4.7c0.8,0.8,1.6,1.6,3.2,3.2
		c10.2,9.5,21.3,29.1,18.1,64.6c-1.6,28.4-14.2,70.1-66.2,111.1c-2.4,1.6-5.5,3.2-7.9,3.2c-3.9,0-7.9-1.6-10.2-5.5
		c-4.7-6.3-3.2-14.2,2.4-18.9c42.5-33.9,53.6-66.2,55.9-89C199.3,250.5,193,252.8,185.9,252.8z"/>
</g>
</svg>
